<mxfile host="app.diagrams.net" agent="Mozilla/5.0 (Windows NT 10.0; Win64; x64) AppleWebKit/537.36 (KHTML, like Gecko) Chrome/131.0.0.0 Safari/537.36" version="27.1.6">
  <diagram name="Seite-1" id="0dwxxID4i1OE_uf2rhqM">
    <mxGraphModel dx="983" dy="541" grid="1" gridSize="10" guides="1" tooltips="1" connect="1" arrows="1" fold="1" page="1" pageScale="1" pageWidth="827" pageHeight="1169" math="0" shadow="0">
      <root>
        <mxCell id="0" />
        <mxCell id="1" parent="0" />
        <mxCell id="jcDSv6W-GaCG8fjlKbPg-1" value="Start" style="strokeWidth=2;html=1;shape=mxgraph.flowchart.start_2;whiteSpace=wrap;" vertex="1" parent="1">
          <mxGeometry x="50" y="50" width="100" height="100" as="geometry" />
        </mxCell>
        <mxCell id="jcDSv6W-GaCG8fjlKbPg-2" value="counter = 0" style="shape=parallelogram;html=1;strokeWidth=2;perimeter=parallelogramPerimeter;whiteSpace=wrap;rounded=1;arcSize=12;size=0.23;" vertex="1" parent="1">
          <mxGeometry x="210" y="70" width="100" height="60" as="geometry" />
        </mxCell>
        <mxCell id="jcDSv6W-GaCG8fjlKbPg-3" value="Eingabe: password" style="shape=parallelogram;html=1;strokeWidth=2;perimeter=parallelogramPerimeter;whiteSpace=wrap;rounded=1;arcSize=12;size=0.23;" vertex="1" parent="1">
          <mxGeometry x="390" y="70" width="170" height="60" as="geometry" />
        </mxCell>
        <mxCell id="jcDSv6W-GaCG8fjlKbPg-4" value="password == userPW" style="strokeWidth=2;html=1;shape=mxgraph.flowchart.decision;whiteSpace=wrap;" vertex="1" parent="1">
          <mxGeometry x="381.25" y="320" width="187.5" height="100" as="geometry" />
        </mxCell>
        <mxCell id="jcDSv6W-GaCG8fjlKbPg-5" value="" style="endArrow=classic;html=1;rounded=0;exitX=1;exitY=0.5;exitDx=0;exitDy=0;exitPerimeter=0;" edge="1" parent="1" source="jcDSv6W-GaCG8fjlKbPg-1" target="jcDSv6W-GaCG8fjlKbPg-2">
          <mxGeometry width="50" height="50" relative="1" as="geometry">
            <mxPoint x="360" y="270" as="sourcePoint" />
            <mxPoint x="410" y="220" as="targetPoint" />
          </mxGeometry>
        </mxCell>
        <mxCell id="jcDSv6W-GaCG8fjlKbPg-6" value="" style="endArrow=classic;html=1;rounded=0;exitX=1;exitY=0.5;exitDx=0;exitDy=0;" edge="1" parent="1" source="jcDSv6W-GaCG8fjlKbPg-2" target="jcDSv6W-GaCG8fjlKbPg-3">
          <mxGeometry width="50" height="50" relative="1" as="geometry">
            <mxPoint x="190" y="90" as="sourcePoint" />
            <mxPoint x="262" y="90" as="targetPoint" />
          </mxGeometry>
        </mxCell>
        <mxCell id="jcDSv6W-GaCG8fjlKbPg-7" value="" style="endArrow=classic;html=1;rounded=0;exitX=0.5;exitY=1;exitDx=0;exitDy=0;entryX=0.5;entryY=0;entryDx=0;entryDy=0;entryPerimeter=0;" edge="1" parent="1" source="jcDSv6W-GaCG8fjlKbPg-3" target="jcDSv6W-GaCG8fjlKbPg-10">
          <mxGeometry width="50" height="50" relative="1" as="geometry">
            <mxPoint x="381.25" y="170" as="sourcePoint" />
            <mxPoint x="475" y="170" as="targetPoint" />
          </mxGeometry>
        </mxCell>
        <mxCell id="jcDSv6W-GaCG8fjlKbPg-8" value="" style="endArrow=classic;html=1;rounded=0;exitX=0.5;exitY=1;exitDx=0;exitDy=0;exitPerimeter=0;entryX=0.5;entryY=0;entryDx=0;entryDy=0;" edge="1" parent="1" source="jcDSv6W-GaCG8fjlKbPg-4" target="jcDSv6W-GaCG8fjlKbPg-17">
          <mxGeometry width="50" height="50" relative="1" as="geometry">
            <mxPoint x="480" y="440" as="sourcePoint" />
            <mxPoint x="475" y="480" as="targetPoint" />
          </mxGeometry>
        </mxCell>
        <mxCell id="jcDSv6W-GaCG8fjlKbPg-15" value="Ja" style="edgeLabel;html=1;align=center;verticalAlign=middle;resizable=0;points=[];" vertex="1" connectable="0" parent="jcDSv6W-GaCG8fjlKbPg-8">
          <mxGeometry x="-0.2517" y="-1" relative="1" as="geometry">
            <mxPoint as="offset" />
          </mxGeometry>
        </mxCell>
        <mxCell id="jcDSv6W-GaCG8fjlKbPg-10" value="counter &amp;gt;= 3" style="strokeWidth=2;html=1;shape=mxgraph.flowchart.decision;whiteSpace=wrap;" vertex="1" parent="1">
          <mxGeometry x="381.25" y="170" width="187.5" height="100" as="geometry" />
        </mxCell>
        <mxCell id="jcDSv6W-GaCG8fjlKbPg-11" value="" style="endArrow=classic;html=1;rounded=0;exitX=0;exitY=0.5;exitDx=0;exitDy=0;exitPerimeter=0;entryX=1;entryY=0.5;entryDx=0;entryDy=0;" edge="1" parent="1" source="jcDSv6W-GaCG8fjlKbPg-10" target="jcDSv6W-GaCG8fjlKbPg-14">
          <mxGeometry width="50" height="50" relative="1" as="geometry">
            <mxPoint x="420" y="110" as="sourcePoint" />
            <mxPoint x="310" y="220" as="targetPoint" />
          </mxGeometry>
        </mxCell>
        <mxCell id="jcDSv6W-GaCG8fjlKbPg-16" value="Ja" style="edgeLabel;html=1;align=center;verticalAlign=middle;resizable=0;points=[];" vertex="1" connectable="0" parent="jcDSv6W-GaCG8fjlKbPg-11">
          <mxGeometry x="0.0372" relative="1" as="geometry">
            <mxPoint as="offset" />
          </mxGeometry>
        </mxCell>
        <mxCell id="jcDSv6W-GaCG8fjlKbPg-12" value="" style="endArrow=classic;html=1;rounded=0;exitX=0.5;exitY=1;exitDx=0;exitDy=0;exitPerimeter=0;entryX=0.5;entryY=0;entryDx=0;entryDy=0;entryPerimeter=0;" edge="1" parent="1" source="jcDSv6W-GaCG8fjlKbPg-10" target="jcDSv6W-GaCG8fjlKbPg-4">
          <mxGeometry width="50" height="50" relative="1" as="geometry">
            <mxPoint x="350" y="160" as="sourcePoint" />
            <mxPoint x="461" y="160" as="targetPoint" />
          </mxGeometry>
        </mxCell>
        <mxCell id="jcDSv6W-GaCG8fjlKbPg-13" value="Nein" style="edgeLabel;html=1;align=center;verticalAlign=middle;resizable=0;points=[];" vertex="1" connectable="0" parent="jcDSv6W-GaCG8fjlKbPg-12">
          <mxGeometry x="-0.3366" y="-1" relative="1" as="geometry">
            <mxPoint as="offset" />
          </mxGeometry>
        </mxCell>
        <mxCell id="jcDSv6W-GaCG8fjlKbPg-14" value="lockZugang(24);&lt;div&gt;informAdmin();&lt;/div&gt;" style="shape=parallelogram;html=1;strokeWidth=2;perimeter=parallelogramPerimeter;whiteSpace=wrap;rounded=1;arcSize=12;size=0.23;" vertex="1" parent="1">
          <mxGeometry x="60" y="190" width="220" height="60" as="geometry" />
        </mxCell>
        <mxCell id="jcDSv6W-GaCG8fjlKbPg-17" value="closeForm();&lt;div&gt;successLogin();&lt;/div&gt;" style="shape=parallelogram;html=1;strokeWidth=2;perimeter=parallelogramPerimeter;whiteSpace=wrap;rounded=1;arcSize=12;size=0.23;" vertex="1" parent="1">
          <mxGeometry x="365" y="480" width="220" height="60" as="geometry" />
        </mxCell>
        <mxCell id="jcDSv6W-GaCG8fjlKbPg-18" value="" style="endArrow=classic;html=1;rounded=0;exitX=1;exitY=0.5;exitDx=0;exitDy=0;exitPerimeter=0;entryX=0.5;entryY=1;entryDx=0;entryDy=0;" edge="1" parent="1" source="jcDSv6W-GaCG8fjlKbPg-4" target="jcDSv6W-GaCG8fjlKbPg-20">
          <mxGeometry width="50" height="50" relative="1" as="geometry">
            <mxPoint x="530" y="290" as="sourcePoint" />
            <mxPoint x="680" y="280" as="targetPoint" />
            <Array as="points">
              <mxPoint x="685" y="370" />
            </Array>
          </mxGeometry>
        </mxCell>
        <mxCell id="jcDSv6W-GaCG8fjlKbPg-19" value="Nein" style="edgeLabel;html=1;align=center;verticalAlign=middle;resizable=0;points=[];" vertex="1" connectable="0" parent="jcDSv6W-GaCG8fjlKbPg-18">
          <mxGeometry x="-0.3366" y="-1" relative="1" as="geometry">
            <mxPoint as="offset" />
          </mxGeometry>
        </mxCell>
        <mxCell id="jcDSv6W-GaCG8fjlKbPg-20" value="counter++" style="shape=parallelogram;html=1;strokeWidth=2;perimeter=parallelogramPerimeter;whiteSpace=wrap;rounded=1;arcSize=12;size=0.23;" vertex="1" parent="1">
          <mxGeometry x="600" y="220" width="170" height="60" as="geometry" />
        </mxCell>
        <mxCell id="jcDSv6W-GaCG8fjlKbPg-21" value="" style="endArrow=classic;html=1;rounded=0;exitX=0.5;exitY=0;exitDx=0;exitDy=0;entryX=1;entryY=0.5;entryDx=0;entryDy=0;" edge="1" parent="1" source="jcDSv6W-GaCG8fjlKbPg-20" target="jcDSv6W-GaCG8fjlKbPg-3">
          <mxGeometry width="50" height="50" relative="1" as="geometry">
            <mxPoint x="590" y="150" as="sourcePoint" />
            <mxPoint x="590" y="190" as="targetPoint" />
            <Array as="points">
              <mxPoint x="685" y="100" />
            </Array>
          </mxGeometry>
        </mxCell>
      </root>
    </mxGraphModel>
  </diagram>
</mxfile>
